<svg width="49" height="38" viewBox="0 0 49 38" fill="none" xmlns="http://www.w3.org/2000/svg">
<path d="M20.3194 35.1783L14.4835 26.7156C14.6063 26.6929 14.7292 26.6749 14.8515 26.6434C15.2292 26.5808 15.5971 26.4998 15.9651 26.4057C19.6334 25.5078 22.9562 23.6325 25.5435 21.0003C25.9239 20.7922 26.2473 20.5014 26.487 20.1516L27.5394 18.6254C27.6339 18.4949 27.7234 18.3647 27.8081 18.2345L30.993 13.6196C31.3282 13.1401 31.4894 12.5694 31.452 11.9947C31.4145 11.4199 31.1805 10.8726 30.7856 10.4362C30.7001 10.3384 30.6069 10.2468 30.5069 10.1622C30.2702 9.95656 29.9949 9.79518 29.6954 9.68646C30.0873 9.73023 30.4742 9.78538 30.856 9.85278C34.3257 10.4586 37.564 11.9304 40.2398 14.1177C40.7256 14.5116 41.1929 14.9305 41.6364 15.3703L29.7129 32.6507L29.7083 32.6551C29.7083 32.6595 29.7037 32.6643 29.6986 32.6687V32.673C29.693 32.6799 29.6883 32.6876 29.6849 32.6957L27.9719 35.1783C27.5555 35.7823 26.9878 36.2782 26.3198 36.6213C25.6519 36.9645 24.9047 37.1442 24.1456 37.1442C23.3865 37.1442 22.6394 36.9645 21.9715 36.6213C21.3035 36.2782 20.7358 35.7823 20.3194 35.1783Z" fill="#93C48B"/>
<path d="M14.4836 26.7157L9.60034 19.6356L7.57132 16.6904L7.5336 16.6409C7.53097 16.6385 7.52936 16.6352 7.529 16.6318C7.52394 16.6274 7.51934 16.623 7.51934 16.6186C7.51938 16.618 7.51934 16.6174 7.51911 16.6168C7.51892 16.6162 7.5186 16.6157 7.51814 16.6153C7.51773 16.6148 7.51717 16.6144 7.51658 16.6142C7.51602 16.6139 7.51538 16.6138 7.51474 16.6138C7.51474 16.6094 7.51014 16.6051 7.51014 16.6002L7.50508 16.5959L2.9654 10.0231C2.96142 10.0193 2.95816 10.0148 2.95574 10.01C2.95114 10.0052 2.95114 10.0052 2.95114 10.0008L0.752383 6.81309C0.2986 6.15621 0.0400989 5.39476 0.00430043 4.60942C-0.0314982 3.82408 0.156739 3.04418 0.549044 2.3524C0.941352 1.66062 1.5231 1.08275 2.23261 0.680076C2.94211 0.277413 3.75293 0.0649595 4.57905 0.0652469H13.8456C13.8364 0.109016 13.8318 0.159785 13.8267 0.204429C13.7037 1.05391 13.6421 1.91046 13.6427 2.76798C13.6427 3.105 13.6524 3.4372 13.6713 3.76941C13.6713 3.77816 13.6759 3.78254 13.6759 3.79173C13.8912 7.6903 15.3679 11.4302 17.9037 14.4993C17.907 14.5063 17.9118 14.5124 17.9179 14.5173L21.8058 20.1516C22.1135 20.6002 22.5568 20.9497 23.0772 21.1541C23.5977 21.3584 24.1709 21.4082 24.7216 21.2966C25.0099 21.2391 25.2869 21.1391 25.5427 21.0003C22.9554 23.6326 19.6326 25.5078 15.9643 26.4058C15.5963 26.4999 15.2283 26.5808 14.8507 26.6434C14.7283 26.675 14.6055 26.6929 14.4836 26.7157Z" fill="#898952"/>
<path d="M17.2995 13.6196L17.9035 14.4993C15.3677 11.4302 13.8911 7.6903 13.6757 3.79173C13.6757 3.78254 13.6711 3.77816 13.6711 3.76941C13.6522 3.4372 13.6426 3.105 13.6426 2.76798C13.642 1.91046 13.7035 1.05391 13.8266 0.204429C13.8316 0.16066 13.8362 0.110329 13.8454 0.0652469H43.7127C44.5389 0.0649595 45.3497 0.277413 46.0592 0.680076C46.7685 1.08275 47.3504 1.66062 47.7428 2.3524C48.1352 3.04418 48.3233 3.82408 48.2874 4.60942C48.2515 5.39476 47.993 6.15621 47.5395 6.81309L43.1938 13.1219C43.1856 13.1348 43.176 13.1467 43.1654 13.1578H43.1607C43.1571 13.1659 43.1523 13.1734 43.1465 13.1801V13.185L43.1419 13.1893C43.1394 13.1943 43.1361 13.1988 43.1322 13.2029L41.6368 15.3712C41.1933 14.9313 40.726 14.5138 40.2402 14.1185C37.5644 11.9313 34.3261 10.4596 30.8564 9.85371C30.4746 9.78631 30.0878 9.73247 29.6958 9.68739C29.3652 9.55766 29.0107 9.492 28.653 9.49437H19.64C19.2576 9.49437 18.8793 9.56882 18.5282 9.71308C18.1772 9.85739 17.8609 10.0685 17.5988 10.3334C17.3367 10.5983 17.1343 10.9115 17.0042 11.2536C16.874 11.5957 16.8187 11.9595 16.8418 12.3227C16.8426 12.3544 16.8457 12.386 16.851 12.4173C16.891 12.8477 17.0453 13.2615 17.2995 13.6196Z" fill="#B2945B"/>
</svg>
