<svg width="83" height="83" viewBox="0 0 83 83" fill="none" xmlns="http://www.w3.org/2000/svg">
<path d="M41.5 51.875C47.23 51.875 51.875 47.23 51.875 41.5C51.875 35.77 47.23 31.125 41.5 31.125C35.77 31.125 31.125 35.77 31.125 41.5C31.125 47.23 35.77 51.875 41.5 51.875Z" stroke="black" stroke-width="2" stroke-linecap="round" stroke-linejoin="round"/>
<path d="M67.0917 51.8749C66.6313 52.918 66.494 54.0751 66.6974 55.1969C66.9008 56.3188 67.4356 57.354 68.2329 58.1691L68.4404 58.3766C69.0835 59.0189 69.5937 59.7818 69.9417 60.6215C70.2898 61.4611 70.469 62.3612 70.469 63.2701C70.469 64.1791 70.2898 65.0791 69.9417 65.9188C69.5937 66.7585 69.0835 67.5213 68.4404 68.1637C67.798 68.8067 67.0352 69.3169 66.1955 69.665C65.3559 70.0131 64.4558 70.1922 63.5469 70.1922C62.6379 70.1922 61.7379 70.0131 60.8982 69.665C60.0585 69.3169 59.2957 68.8067 58.6533 68.1637L58.4458 67.9562C57.6308 67.1589 56.5956 66.6241 55.4737 66.4206C54.3518 66.2172 53.1948 66.3546 52.1517 66.8149C51.1288 67.2533 50.2564 67.9812 49.642 68.9091C49.0275 69.8369 48.6978 70.9242 48.6933 72.037V72.6249C48.6933 74.4593 47.9646 76.2186 46.6675 77.5157C45.3704 78.8129 43.6111 79.5416 41.7767 79.5416C39.9423 79.5416 38.183 78.8129 36.8858 77.5157C35.5887 76.2186 34.86 74.4593 34.86 72.6249V72.3137C34.8332 71.169 34.4627 70.0588 33.7966 69.1275C33.1305 68.1962 32.1996 67.4868 31.125 67.0916C30.0819 66.6312 28.9248 66.4939 27.803 66.6973C26.6811 66.9007 25.6459 67.4356 24.8308 68.2328L24.6233 68.4403C23.981 69.0834 23.2181 69.5936 22.3785 69.9417C21.5388 70.2897 20.6387 70.4689 19.7298 70.4689C18.8208 70.4689 17.9208 70.2897 17.0811 69.9417C16.2415 69.5936 15.4786 69.0834 14.8363 68.4403C14.1932 67.798 13.683 67.0351 13.3349 66.1955C12.9868 65.3558 12.8077 64.4557 12.8077 63.5468C12.8077 62.6378 12.9868 61.7378 13.3349 60.8981C13.683 60.0584 14.1932 59.2956 14.8363 58.6532L15.0438 58.4457C15.841 57.6307 16.3759 56.5955 16.5793 55.4736C16.7827 54.3517 16.6454 53.1947 16.185 52.1516C15.7466 51.1287 15.0187 50.2564 14.0909 49.6419C13.163 49.0274 12.0758 48.6977 10.9629 48.6932H10.375C8.54059 48.6932 6.78131 47.9645 5.48418 46.6674C4.18705 45.3703 3.45834 43.611 3.45834 41.7766C3.45834 39.9422 4.18705 38.1829 5.48418 36.8858C6.78131 35.5886 8.54059 34.8599 10.375 34.8599H10.6863C11.8309 34.8331 12.9411 34.4626 13.8724 33.7965C14.8037 33.1304 15.5131 32.1995 15.9083 31.1249C16.3687 30.0818 16.506 28.9247 16.3026 27.8029C16.0992 26.681 15.5644 25.6458 14.7671 24.8307L14.5596 24.6232C13.9165 23.9809 13.4063 23.218 13.0583 22.3784C12.7102 21.5387 12.531 20.6387 12.531 19.7297C12.531 18.8208 12.7102 17.9207 13.0583 17.081C13.4063 16.2414 13.9165 15.4785 14.5596 14.8362C15.202 14.1931 15.9648 13.6829 16.8045 13.3348C17.6441 12.9868 18.5442 12.8076 19.4531 12.8076C20.3621 12.8076 21.2621 12.9868 22.1018 13.3348C22.9415 13.6829 23.7043 14.1931 24.3467 14.8362L24.5542 15.0437C25.3692 15.8409 26.4044 16.3758 27.5263 16.5792C28.6482 16.7826 29.8052 16.6453 30.8483 16.1849H31.125C32.1479 15.7465 33.0202 15.0186 33.6347 14.0908C34.2491 13.1629 34.5789 12.0757 34.5833 10.9628V10.3749C34.5833 8.5405 35.3121 6.78122 36.6092 5.4841C37.9063 4.18697 39.6656 3.45825 41.5 3.45825C43.3344 3.45825 45.0937 4.18697 46.3908 5.4841C47.6879 6.78122 48.4167 8.5405 48.4167 10.3749V10.6862C48.4211 11.799 48.7508 12.8863 49.3653 13.8141C49.9798 14.7419 50.8521 15.4699 51.875 15.9083C52.9181 16.3686 54.0752 16.5059 55.197 16.3025C56.3189 16.0991 57.3541 15.5643 58.1692 14.767L58.3767 14.5595C59.019 13.9164 59.7819 13.4062 60.6215 13.0582C61.4612 12.7101 62.3612 12.5309 63.2702 12.5309C64.1792 12.5309 65.0792 12.7101 65.9189 13.0582C66.7585 13.4062 67.5214 13.9164 68.1637 14.5595C68.8068 15.2019 69.317 15.9647 69.6651 16.8044C70.0132 17.644 70.1923 18.5441 70.1923 19.453C70.1923 20.362 70.0132 21.262 69.6651 22.1017C69.317 22.9414 68.8068 23.7042 68.1637 24.3466L67.9562 24.5541C67.159 25.3691 66.6241 26.4043 66.4207 27.5262C66.2173 28.6481 66.3546 29.8052 66.815 30.8482V31.1249C67.2534 32.1478 67.9813 33.0201 68.9091 33.6346C69.837 34.2491 70.9242 34.5788 72.0371 34.5832H72.625C74.4594 34.5832 76.2187 35.312 77.5158 36.6091C78.8129 37.9062 79.5417 39.6655 79.5417 41.4999C79.5417 43.3343 78.8129 45.0936 77.5158 46.3907C76.2187 47.6879 74.4594 48.4166 72.625 48.4166H72.3137C71.2009 48.421 70.1136 48.7508 69.1858 49.3652C68.258 49.9797 67.5301 50.852 67.0917 51.8749V51.8749Z" stroke="black" stroke-width="2" stroke-linecap="round" stroke-linejoin="round"/>
</svg>
