<svg width="24" height="24" xmlns="http://www.w3.org/2000/svg" fill-rule="evenodd" clip-rule="evenodd">
<path d="M10 24l.009-5.046c-.57-.208-1.083-.542-1.533-.997-.553.194-1.133.293-1.726.293-2.895 0-5.25-2.374-5.25-5.292 0-1.327.478-2.572 1.354-3.546-.265-.533-.404-1.121-.404-1.725 0-1.952 1.433-3.57 3.317-3.82.953-2.326 3.217-3.867 5.733-3.867 2.516 0 4.78 1.541 5.733 3.867 1.884.25 3.317 1.868 3.317 3.82 0 .603-.139 1.192-.403 1.725.876.974 1.353 2.219 1.353 3.546 0 2.918-2.355 5.292-5.25 5.292-.593 0-1.172-.099-1.725-.293-.45.455-.963.789-1.534.997l.009 5.046h-3zm1.009-1h.982v-4.8c.78-.203 1.265-.275 2.254-1.438.606.261 1.131.488 2.005.488 2.344 0 4.25-1.926 4.25-4.292 0-.492.03-1.81-1.612-3.389.344-.545.662-1.016.662-1.882 0-.555-.249-2.741-3.034-2.866-.923-2.647-2.955-3.821-5.016-3.821-2.084 0-4.095 1.189-5.016 3.821-2.785.125-3.034 2.312-3.034 2.866 0 .884.351 1.389.663 1.882-1.637 1.575-1.613 2.857-1.613 3.389 0 2.366 1.907 4.292 4.25 4.292.894 0 1.451-.249 2.005-.488.993 1.168 1.459 1.231 2.254 1.438v4.8z"/>
</svg>